<?xml version="1.0" encoding="UTF-8" standalone="no"?>
<!-- Created with Inkscape (http://www.inkscape.org/) -->

<svg
   xmlns:dc="http://purl.org/dc/elements/1.1/"
   xmlns:cc="http://creativecommons.org/ns#"
   xmlns:rdf="http://www.w3.org/1999/02/22-rdf-syntax-ns#"
   xmlns:svg="http://www.w3.org/2000/svg"
   xmlns="http://www.w3.org/2000/svg"
   xmlns:xlink="http://www.w3.org/1999/xlink"
   xmlns:sodipodi="http://sodipodi.sourceforge.net/DTD/sodipodi-0.dtd"
   xmlns:inkscape="http://www.inkscape.org/namespaces/inkscape"
   width="210mm"
   height="297mm"
   viewBox="0 0 210 297"
   version="1.1"
   id="svg8"
   inkscape:version="0.92.3 (2405546, 2018-03-11)"
   sodipodi:docname="star_ship.svg.2020_02_04_18_07_57.0.svg"
   inkscape:export-filename="C:\Users\Ange\Desktop\base_de_donnee\activtour\ActivTour_godot_proj_03\assets\images\soucoupe_mechant.png"
   inkscape:export-xdpi="100"
   inkscape:export-ydpi="100">
  <defs
     id="defs2">
    <linearGradient
       inkscape:collect="always"
       id="linearGradient884">
      <stop
         style="stop-color:#151516;stop-opacity:1"
         offset="0"
         id="stop880" />
      <stop
         style="stop-color:#000000;stop-opacity:1"
         offset="1"
         id="stop882" />
    </linearGradient>
    <linearGradient
       inkscape:collect="always"
       id="linearGradient839">
      <stop
         style="stop-color:#00d8fa;stop-opacity:1;"
         offset="0"
         id="stop835" />
      <stop
         style="stop-color:#00d8fa;stop-opacity:0;"
         offset="1"
         id="stop837" />
    </linearGradient>
    <linearGradient
       inkscape:collect="always"
       id="linearGradient4234">
      <stop
         style="stop-color:#000000;stop-opacity:1;"
         offset="0"
         id="stop4230" />
      <stop
         style="stop-color:#585b5e;stop-opacity:0"
         offset="1"
         id="stop4232" />
    </linearGradient>
    <linearGradient
       inkscape:collect="always"
       id="linearGradient4224">
      <stop
         style="stop-color:#00caff;stop-opacity:1"
         offset="0"
         id="stop4220" />
      <stop
         style="stop-color:#000000;stop-opacity:0;"
         offset="1"
         id="stop4222" />
    </linearGradient>
    <linearGradient
       inkscape:collect="always"
       xlink:href="#linearGradient4224"
       id="linearGradient4226"
       x1="-206.04179"
       y1="96.053322"
       x2="-206.04179"
       y2="123.84935"
       gradientUnits="userSpaceOnUse"
       gradientTransform="matrix(1,0,0,1.2867462,0,-36.341005)" />
    <radialGradient
       inkscape:collect="always"
       xlink:href="#linearGradient4234"
       id="radialGradient4236"
       cx="-203.35118"
       cy="135.42221"
       fx="-203.35118"
       fy="135.42221"
       r="45.168549"
       gradientTransform="matrix(1.128532,0,0,0.80140055,26.137117,33.773943)"
       gradientUnits="userSpaceOnUse" />
    <filter
       inkscape:collect="always"
       style="color-interpolation-filters:sRGB"
       id="filter4274"
       x="-0.048018461"
       width="1.0960369"
       y="-0.084356757"
       height="1.1687135">
      <feGaussianBlur
         inkscape:collect="always"
         stdDeviation="2.1817581"
         id="feGaussianBlur4276" />
    </filter>
    <linearGradient
       inkscape:collect="always"
       xlink:href="#linearGradient839"
       id="linearGradient841"
       x1="-208.44902"
       y1="196.18082"
       x2="-208.44902"
       y2="120.81081"
       gradientUnits="userSpaceOnUse" />
    <linearGradient
       inkscape:collect="always"
       xlink:href="#linearGradient4224-8"
       id="linearGradient4226-0"
       x1="-206.04179"
       y1="96.053322"
       x2="-206.04179"
       y2="123.84935"
       gradientUnits="userSpaceOnUse"
       gradientTransform="matrix(1,0,0,1.2867462,105.92783,130.57462)" />
    <linearGradient
       inkscape:collect="always"
       id="linearGradient4224-8">
      <stop
         style="stop-color:#ff0000;stop-opacity:1"
         offset="0"
         id="stop4220-0" />
      <stop
         style="stop-color:#000000;stop-opacity:0;"
         offset="1"
         id="stop4222-3" />
    </linearGradient>
    <radialGradient
       inkscape:collect="always"
       xlink:href="#linearGradient4234"
       id="radialGradient4236-3"
       cx="-203.35118"
       cy="135.42221"
       fx="-203.35118"
       fy="135.42221"
       r="45.168549"
       gradientTransform="matrix(1.128532,0,0,0.80140056,132.06495,200.68956)"
       gradientUnits="userSpaceOnUse" />
    <filter
       inkscape:collect="always"
       style="color-interpolation-filters:sRGB"
       id="filter4274-0"
       x="-0.048018459"
       width="1.0960369"
       y="-0.084356755"
       height="1.1687135">
      <feGaussianBlur
         inkscape:collect="always"
         stdDeviation="2.1817581"
         id="feGaussianBlur4276-4" />
    </filter>
    <linearGradient
       gradientTransform="translate(105.92783,166.91562)"
       inkscape:collect="always"
       xlink:href="#linearGradient839-0"
       id="linearGradient841-4"
       x1="-208.44902"
       y1="196.18082"
       x2="-208.44902"
       y2="120.81081"
       gradientUnits="userSpaceOnUse" />
    <linearGradient
       inkscape:collect="always"
       id="linearGradient839-0">
      <stop
         style="stop-color:#ff4000;stop-opacity:1"
         offset="0"
         id="stop835-8" />
      <stop
         style="stop-color:#e60000;stop-opacity:1"
         offset="1"
         id="stop837-8" />
    </linearGradient>
    <linearGradient
       inkscape:collect="always"
       xlink:href="#linearGradient884"
       id="linearGradient886"
       x1="-204.42249"
       y1="189.43135"
       x2="-204.42249"
       y2="163.83064"
       gradientUnits="userSpaceOnUse"
       gradientTransform="matrix(0.81135564,0,0,0.81135564,-38.361052,33.019475)" />
  </defs>
  <sodipodi:namedview
     id="base"
     pagecolor="#ffffff"
     bordercolor="#666666"
     borderopacity="1.0"
     inkscape:pageopacity="0.0"
     inkscape:pageshadow="2"
     inkscape:zoom="0.89139385"
     inkscape:cx="-738.35965"
     inkscape:cy="626.23623"
     inkscape:document-units="mm"
     inkscape:current-layer="layer1"
     showgrid="false"
     inkscape:window-width="1920"
     inkscape:window-height="1017"
     inkscape:window-x="-8"
     inkscape:window-y="-8"
     inkscape:window-maximized="1"
     inkscape:snap-global="false" />
  <metadata
     id="metadata5">
    <rdf:RDF>
      <cc:Work
         rdf:about="">
        <dc:format>image/svg+xml</dc:format>
        <dc:type
           rdf:resource="http://purl.org/dc/dcmitype/StillImage" />
        <dc:title />
      </cc:Work>
    </rdf:RDF>
  </metadata>
  <g
     inkscape:label="Calque 1"
     inkscape:groupmode="layer"
     id="layer1">
    <path
       inkscape:connector-curvature="0"
       id="path833"
       d="m -189.35171,178.29063 10.75515,19.99456 a 5.7180517,5.7180517 0 0 1 6.51885,2.80704 5.7180517,5.7180517 0 0 1 -2.32699,7.7445 5.7180517,5.7180517 0 0 1 -7.74451,-2.32699 5.7180517,5.7180517 0 0 1 1.25008,-6.98668 l -10.75488,-19.99402 z"
       style="opacity:1;fill:#000000;fill-opacity:1;stroke:#000000;stroke-width:1.15261519;stroke-linecap:round;stroke-linejoin:round;stroke-miterlimit:4;stroke-dasharray:none;stroke-dashoffset:0;stroke-opacity:1"
       inkscape:export-filename="C:\Users\Ange\Desktop\base_de_donnee\activtour\ActivTour_godot_proj_03\assets\images\soucoupe.png"
       inkscape:export-xdpi="50"
       inkscape:export-ydpi="50" />
    <path
       style="opacity:1;fill:#000000;fill-opacity:1;stroke:#000000;stroke-width:1.15261519;stroke-linecap:round;stroke-linejoin:round;stroke-miterlimit:4;stroke-dasharray:none;stroke-dashoffset:0;stroke-opacity:1"
       d="m -221.32412,178.29063 -10.75515,19.99456 a 5.7180517,5.7180517 0 0 0 -6.51885,2.80704 5.7180517,5.7180517 0 0 0 2.32699,7.7445 5.7180517,5.7180517 0 0 0 7.74451,-2.32699 5.7180517,5.7180517 0 0 0 -1.25008,-6.98668 l 10.75488,-19.99402 z"
       id="path4280"
       inkscape:connector-curvature="0"
       inkscape:export-filename="C:\Users\Ange\Desktop\base_de_donnee\activtour\ActivTour_godot_proj_03\assets\images\soucoupe.png"
       inkscape:export-xdpi="50"
       inkscape:export-ydpi="50" />
    <ellipse
       ry="37.963234"
       rx="65.744476"
       cy="154.2195"
       cx="-203.44568"
       id="ellipse831"
       style="opacity:1;fill:none;fill-opacity:1;stroke:url(#linearGradient841);stroke-width:9.47978878;stroke-linecap:round;stroke-linejoin:round;stroke-miterlimit:4;stroke-dasharray:none;stroke-dashoffset:0;stroke-opacity:1"
       inkscape:export-filename="C:\Users\Ange\Desktop\base_de_donnee\activtour\ActivTour_godot_proj_03\assets\images\soucoupe.png"
       inkscape:export-xdpi="50"
       inkscape:export-ydpi="50" />
    <ellipse
       style="opacity:1;fill:#000000;fill-opacity:1;stroke:none;stroke-width:10;stroke-linecap:round;stroke-linejoin:round;stroke-miterlimit:4;stroke-dasharray:none;stroke-dashoffset:0;stroke-opacity:1"
       id="path815"
       cx="-203.35118"
       cy="151.1012"
       rx="68.035713"
       ry="40.82143"
       inkscape:export-filename="C:\Users\Ange\Desktop\base_de_donnee\activtour\ActivTour_godot_proj_03\assets\images\soucoupe.png"
       inkscape:export-xdpi="50"
       inkscape:export-ydpi="50" />
    <ellipse
       ry="31.03616"
       rx="54.522984"
       cy="142.30136"
       cx="-203.35118"
       id="ellipse4228"
       style="opacity:1;fill:url(#radialGradient4236);fill-opacity:1;stroke:none;stroke-width:15.69230747;stroke-linecap:round;stroke-linejoin:round;stroke-miterlimit:4;stroke-dasharray:none;stroke-dashoffset:0;stroke-opacity:1;filter:url(#filter4274)"
       inkscape:export-filename="C:\Users\Ange\Desktop\base_de_donnee\activtour\ActivTour_godot_proj_03\assets\images\soucoupe.png"
       inkscape:export-xdpi="50"
       inkscape:export-ydpi="50" />
    <ellipse
       style="opacity:1;fill:#000000;fill-opacity:1;stroke:none;stroke-width:13;stroke-linecap:round;stroke-linejoin:round;stroke-miterlimit:4;stroke-dasharray:none;stroke-dashoffset:0;stroke-opacity:1"
       id="path4216"
       cx="-203.35118"
       cy="135.42221"
       rx="45.168549"
       ry="25.711329"
       inkscape:export-filename="C:\Users\Ange\Desktop\base_de_donnee\activtour\ActivTour_godot_proj_03\assets\images\soucoupe.png"
       inkscape:export-xdpi="50"
       inkscape:export-ydpi="50" />
    <path
       style="opacity:1;fill:#000000;fill-opacity:1;stroke:none;stroke-width:14.74652863;stroke-linecap:round;stroke-linejoin:round;stroke-miterlimit:4;stroke-dasharray:none;stroke-dashoffset:0;stroke-opacity:1"
       d="m -203.3663,85.604578 a 34.050137,43.813885 0 0 0 -33.94573,41.131202 h 67.92169 A 34.050137,43.813885 0 0 0 -203.3663,85.604578 Z"
       id="path4211"
       inkscape:connector-curvature="0"
       inkscape:export-filename="C:\Users\Ange\Desktop\base_de_donnee\activtour\ActivTour_godot_proj_03\assets\images\soucoupe.png"
       inkscape:export-xdpi="50"
       inkscape:export-ydpi="50" />
    <path
       inkscape:connector-curvature="0"
       id="path4218"
       d="m -203.36428,88.355842 a 29.494912,37.952466 0 0 0 -29.40447,35.628668 h 58.83513 a 29.494912,37.952466 0 0 0 -29.43066,-35.628668 z"
       style="opacity:1;fill:url(#linearGradient4226);fill-opacity:1;stroke:none;stroke-width:12.77373981;stroke-linecap:round;stroke-linejoin:round;stroke-miterlimit:4;stroke-dasharray:none;stroke-dashoffset:0;stroke-opacity:1"
       inkscape:export-filename="C:\Users\Ange\Desktop\base_de_donnee\activtour\ActivTour_godot_proj_03\assets\images\soucoupe.png"
       inkscape:export-xdpi="50"
       inkscape:export-ydpi="50" />
    <path
       inkscape:connector-curvature="0"
       id="path833-7"
       d="m -83.423884,345.20625 10.755148,19.99456 a 5.7180517,5.7180517 0 0 1 6.518851,2.80704 5.7180517,5.7180517 0 0 1 -2.326988,7.7445 5.7180517,5.7180517 0 0 1 -7.74451,-2.32699 5.7180517,5.7180517 0 0 1 1.250079,-6.98668 l -10.754881,-19.99402 z"
       style="opacity:1;fill:#000000;fill-opacity:1;stroke:#000000;stroke-width:1.15261519;stroke-linecap:round;stroke-linejoin:round;stroke-miterlimit:4;stroke-dasharray:none;stroke-dashoffset:0;stroke-opacity:1"
       inkscape:export-filename="C:\Users\Ange\Desktop\base_de_donnee\activtour\ActivTour_godot_proj_03\assets\images\soucoupe.png"
       inkscape:export-xdpi="100"
       inkscape:export-ydpi="100" />
    <path
       style="opacity:1;fill:#000000;fill-opacity:1;stroke:#000000;stroke-width:1.15261519;stroke-linecap:round;stroke-linejoin:round;stroke-miterlimit:4;stroke-dasharray:none;stroke-dashoffset:0;stroke-opacity:1"
       d="m -115.3963,345.20625 -10.75514,19.99456 a 5.7180517,5.7180517 0 0 0 -6.51886,2.80704 5.7180517,5.7180517 0 0 0 2.327,7.7445 5.7180517,5.7180517 0 0 0 7.7445,-2.32699 5.7180517,5.7180517 0 0 0 -1.25008,-6.98668 l 10.75489,-19.99402 z"
       id="path4280-9"
       inkscape:connector-curvature="0"
       inkscape:export-filename="C:\Users\Ange\Desktop\base_de_donnee\activtour\ActivTour_godot_proj_03\assets\images\soucoupe.png"
       inkscape:export-xdpi="100"
       inkscape:export-ydpi="100" />
    <ellipse
       ry="37.963234"
       rx="65.744476"
       cy="321.1351"
       cx="-97.51786"
       id="ellipse831-4"
       style="opacity:1;fill:none;fill-opacity:1;stroke:url(#linearGradient841-4);stroke-width:9.47978878;stroke-linecap:round;stroke-linejoin:round;stroke-miterlimit:4;stroke-dasharray:none;stroke-dashoffset:0;stroke-opacity:1"
       inkscape:export-filename="C:\Users\Ange\Desktop\base_de_donnee\activtour\ActivTour_godot_proj_03\assets\images\soucoupe.png"
       inkscape:export-xdpi="100"
       inkscape:export-ydpi="100" />
    <ellipse
       style="opacity:1;fill:#000000;fill-opacity:1;stroke:none;stroke-width:10;stroke-linecap:round;stroke-linejoin:round;stroke-miterlimit:4;stroke-dasharray:none;stroke-dashoffset:0;stroke-opacity:1"
       id="path815-2"
       cx="-97.423355"
       cy="318.01682"
       rx="68.035713"
       ry="40.82143"
       inkscape:export-filename="C:\Users\Ange\Desktop\base_de_donnee\activtour\ActivTour_godot_proj_03\assets\images\soucoupe.png"
       inkscape:export-xdpi="100"
       inkscape:export-ydpi="100" />
    <ellipse
       ry="31.03616"
       rx="54.522984"
       cy="309.21698"
       cx="-97.423355"
       id="ellipse4228-8"
       style="opacity:1;fill:url(#radialGradient4236-3);fill-opacity:1;stroke:none;stroke-width:15.69230747;stroke-linecap:round;stroke-linejoin:round;stroke-miterlimit:4;stroke-dasharray:none;stroke-dashoffset:0;stroke-opacity:1;filter:url(#filter4274-0)"
       inkscape:export-filename="C:\Users\Ange\Desktop\base_de_donnee\activtour\ActivTour_godot_proj_03\assets\images\soucoupe.png"
       inkscape:export-xdpi="100"
       inkscape:export-ydpi="100" />
    <ellipse
       style="opacity:1;fill:#000000;fill-opacity:1;stroke:none;stroke-width:13;stroke-linecap:round;stroke-linejoin:round;stroke-miterlimit:4;stroke-dasharray:none;stroke-dashoffset:0;stroke-opacity:1"
       id="path4216-3"
       cx="-97.423355"
       cy="302.33783"
       rx="45.168549"
       ry="25.711329"
       inkscape:export-filename="C:\Users\Ange\Desktop\base_de_donnee\activtour\ActivTour_godot_proj_03\assets\images\soucoupe.png"
       inkscape:export-xdpi="100"
       inkscape:export-ydpi="100" />
    <path
       style="opacity:1;fill:#000000;fill-opacity:1;stroke:none;stroke-width:14.74652863;stroke-linecap:round;stroke-linejoin:round;stroke-miterlimit:4;stroke-dasharray:none;stroke-dashoffset:0;stroke-opacity:1"
       d="m -97.438474,252.5202 a 34.050137,43.813886 0 0 0 -33.945726,41.1312 h 67.921685 a 34.050137,43.813886 0 0 0 -33.975959,-41.1312 z"
       id="path4211-8"
       inkscape:connector-curvature="0"
       inkscape:export-filename="C:\Users\Ange\Desktop\base_de_donnee\activtour\ActivTour_godot_proj_03\assets\images\soucoupe.png"
       inkscape:export-xdpi="100"
       inkscape:export-ydpi="100" />
    <path
       inkscape:connector-curvature="0"
       id="path4218-9"
       d="m -97.436456,255.27146 a 29.494911,37.952466 0 0 0 -29.404464,35.62867 h 58.835124 a 29.494911,37.952466 0 0 0 -29.43066,-35.62867 z"
       style="opacity:1;fill:url(#linearGradient4226-0);fill-opacity:1;stroke:none;stroke-width:12.77373981;stroke-linecap:round;stroke-linejoin:round;stroke-miterlimit:4;stroke-dasharray:none;stroke-dashoffset:0;stroke-opacity:1"
       inkscape:export-filename="C:\Users\Ange\Desktop\base_de_donnee\activtour\ActivTour_godot_proj_03\assets\images\soucoupe.png"
       inkscape:export-xdpi="100"
       inkscape:export-ydpi="100" />
    <circle
       style="opacity:1;fill:url(#linearGradient886);fill-opacity:1;stroke:none;stroke-width:0.35312733;stroke-linecap:round;stroke-linejoin:round;stroke-miterlimit:4;stroke-dasharray:none;stroke-dashoffset:0;stroke-opacity:1"
       id="path864"
       cx="-203.35118"
       cy="175.03558"
       r="12.127852"
       inkscape:export-xdpi="50"
       inkscape:export-ydpi="50" />
    <path
       style="fill:#ffffff;fill-opacity:1;stroke-width:0.03879683"
       d="m -204.33418,185.26261 c -0.10537,-0.0771 -0.0679,-0.57789 0.052,-0.6979 0.0665,-0.0665 0.0965,-0.0743 0.15038,-0.0395 0.0543,0.0351 0.0655,0.0915 0.0574,0.29043 -0.0115,0.28489 -0.072,0.49904 -0.14082,0.49904 -0.0264,0 -0.0799,-0.0235 -0.11903,-0.0521 z m 0.6613,0.0191 c -0.0309,-0.0501 0.23011,-1.13167 0.38993,-1.61577 0.31473,-0.9532 0.80351,-2.06543 1.3299,-3.02615 0.31453,-0.57408 1.13973,-1.85611 1.25776,-1.95406 0.0819,-0.068 0.21963,-0.0196 0.21963,0.0773 0,0.0424 -0.10752,0.24643 -0.239,0.45325 -1.3638,2.14563 -2.07304,3.67977 -2.49653,5.40022 -0.0997,0.40504 -0.16098,0.58156 -0.21885,0.63046 -0.0853,0.0721 -0.20885,0.0898 -0.24284,0.0347 z m 0.71421,-0.004 c 0,-0.24542 0.3075,-1.4519 0.41752,-1.63815 0.0645,-0.10943 0.17692,-0.14485 0.22293,-0.0703 0.061,0.0988 -0.27787,1.6497 -0.37384,1.7105 -0.0717,0.0454 -0.26661,0.0441 -0.26661,-8.1e-4 z m 0.89233,-0.12101 c 0,-0.23017 0.36289,-1.45429 0.60878,-2.05357 0.17517,-0.42692 0.42441,-0.90613 0.51298,-0.98629 0.0948,-0.0857 0.19734,-0.0391 0.19734,0.0895 0,0.057 -0.063,0.23407 -0.1401,0.39351 -0.25737,0.53248 -0.48485,1.13747 -0.67586,1.79741 -0.10412,0.35971 -0.21665,0.69577 -0.25012,0.74683 -0.0789,0.12052 -0.25302,0.12918 -0.25302,0.0125 z m -3.13815,-0.0667 c -0.0454,-0.0851 0.024,-0.51076 0.18658,-1.14099 0.44451,-1.72398 1.26254,-3.42123 2.84539,-5.90371 0.99423,-1.55926 1.09493,-1.83277 0.94151,-2.55679 -0.0868,-0.41017 -0.26099,-0.69969 -0.65876,-1.09556 -0.38484,-0.38303 -0.66833,-0.55294 -1.10648,-0.66313 -0.47439,-0.11931 -1.09347,-0.0175 -1.4428,0.23714 -0.27316,0.19917 -0.45944,0.21481 -0.45944,0.0385 0,-0.11655 0.20827,-0.29234 0.54232,-0.45772 l 0.25137,-0.12444 h 0.66035 c 0.60925,0 0.67679,0.006 0.8724,0.0919 0.6029,0.26148 1.15648,0.7768 1.43033,1.33145 0.21587,0.43721 0.28921,0.77246 0.26999,1.23416 -0.0139,0.33334 -0.0303,0.40011 -0.17135,0.69836 -0.0858,0.18136 -0.42734,0.75749 -0.75898,1.28029 -1.75798,2.77132 -2.57368,4.50267 -3.00359,6.3752 -0.0727,0.31642 -0.15005,0.60892 -0.17201,0.64997 -0.0502,0.0939 -0.17783,0.0968 -0.22683,0.006 z m 3.99169,-0.10684 c 0,-0.14477 0.29123,-1.01694 0.51117,-1.53082 0.26085,-0.60945 0.74252,-1.52842 1.31161,-2.5024 0.88398,-1.51289 1.14159,-1.85496 1.22783,-1.63025 0.0269,0.07 -0.27897,0.64921 -0.95178,1.80222 -0.83034,1.423 -1.28302,2.36163 -1.68751,3.49896 -0.11401,0.32059 -0.21609,0.46094 -0.33523,0.46094 -0.0557,0 -0.076,-0.0265 -0.076,-0.0986 z m -4.71151,-0.0307 c -0.0597,-0.0437 -0.0669,-0.0829 -0.0441,-0.24266 0.0556,-0.39181 0.29912,-1.41213 0.46642,-1.95444 0.0952,-0.30863 0.16548,-0.56877 0.15615,-0.57811 -0.009,-0.009 -0.15075,0.0861 -0.31428,0.21198 -0.16353,0.12592 -0.48142,0.3686 -0.70643,0.53931 -0.22501,0.17071 -0.44072,0.35402 -0.47934,0.40736 -0.0615,0.0848 -0.17082,0.52403 -0.24451,0.98166 -0.0279,0.1732 -0.10842,0.21916 -0.21491,0.12274 -0.0893,-0.0809 -0.1004,-0.29522 -0.0308,-0.59692 0.025,-0.10819 0.0337,-0.20862 0.0192,-0.22307 -0.0144,-0.0144 -0.18104,0.0553 -0.37019,0.15503 -0.36861,0.19435 -0.5366,0.22336 -0.63887,0.11034 -0.0746,-0.0824 -0.0817,-0.12304 -0.0216,-0.12304 0.10165,0 1.4491,-0.84438 1.97456,-1.2374 0.15991,-0.11961 0.49762,-0.38931 0.75043,-0.59934 0.25281,-0.21003 0.52159,-0.42391 0.59728,-0.47527 0.17567,-0.1192 0.28198,-0.12221 0.28198,-0.008 0,0.0471 -0.12988,0.47035 -0.28865,0.94082 -0.29796,0.88301 -0.53274,1.76556 -0.60365,2.26917 -0.0223,0.15875 -0.0447,0.29189 -0.0494,0.29585 -0.0526,0.0432 -0.18262,0.0454 -0.23926,0.004 z m 5.48802,-0.19078 c 8.1e-4,-0.24477 0.57275,-1.6939 0.85603,-2.17197 0.15472,-0.2611 0.2451,-0.34497 0.3364,-0.31224 0.0901,0.0323 0.0493,0.17865 -0.20821,0.74551 -0.14119,0.31081 -0.34812,0.8043 -0.45985,1.09666 -0.24137,0.63155 -0.29887,0.72934 -0.42885,0.72934 -0.0738,0 -0.096,-0.0201 -0.0956,-0.0873 z m 1.93926,-0.82729 c 0,-0.0123 0.10322,-0.23484 0.22946,-0.49466 0.46211,-0.95143 1.40241,-2.40452 1.98146,-3.06208 0.18679,-0.21211 0.34968,-0.25419 0.34968,-0.0904 0,0.10064 -0.12461,0.29481 -0.69901,1.08934 -0.39265,0.54314 -0.79642,1.17655 -1.12529,1.76528 -0.27188,0.48671 -0.42193,0.69428 -0.54971,0.76035 -0.10989,0.0569 -0.18659,0.0699 -0.18659,0.032 z m -0.67789,-0.32407 c -0.0514,-0.16199 0.24244,-0.68077 1.29851,-2.29232 1.1893,-1.81493 1.48794,-2.34796 1.80851,-3.22798 0.21237,-0.583 0.25257,-0.65029 0.35227,-0.5896 0.11079,0.0674 0.10279,0.24295 -0.0289,0.63812 -0.26959,0.80896 -0.6822,1.55804 -1.78328,3.23764 -0.37768,0.57614 -0.80965,1.25703 -0.95993,1.51307 -0.15028,0.25608 -0.3236,0.53541 -0.38517,0.62077 -0.12766,0.17697 -0.26339,0.22205 -0.30203,0.10029 z m -10.37617,-0.60142 c -0.0488,-0.052 -0.0768,-0.11376 -0.0622,-0.1373 0.0145,-0.0236 0.20407,-0.13186 0.42114,-0.24066 0.91138,-0.45679 1.74813,-0.96558 2.54481,-1.54733 0.2166,-0.15817 0.4039,-0.19956 0.44291,-0.0978 0.0666,0.17393 -0.78184,0.79709 -2.05041,1.50569 -1.14299,0.63843 -1.17171,0.64991 -1.29615,0.51746 z m 12.35427,0.0129 c 0.016,-0.0514 0.28299,-0.5127 0.5932,-1.02483 1.73865,-2.87042 2.108,-3.66903 2.33264,-5.04358 0.10469,-0.64093 0.13695,-0.72556 0.27024,-0.71008 0.09,0.0101 0.10255,0.0309 0.11354,0.18612 0.0281,0.39578 -0.20601,1.37609 -0.52192,2.18507 -0.56598,1.44948 -2.01561,3.84439 -2.6334,4.35062 -0.16645,0.13641 -0.18079,0.14167 -0.1543,0.0566 z m -6.57185,-0.0851 c -0.0751,-0.075 -0.0483,-0.25128 0.0968,-0.64075 0.25117,-0.67382 0.94063,-2.0201 1.15243,-2.25028 0.0975,-0.10594 0.27074,-0.10334 0.29117,0.004 0.008,0.0387 -0.0742,0.22207 -0.18094,0.40736 -0.26222,0.45461 -0.65808,1.23848 -0.85972,1.70241 -0.35257,0.81119 -0.39679,0.87994 -0.49979,0.77694 z m -3.97494,-0.0151 c -0.0621,-0.0621 -0.0153,-0.17231 0.11962,-0.28156 0.08,-0.0649 0.355,-0.26872 0.61106,-0.45314 1.38798,-0.99963 2.60231,-2.28659 3.82166,-4.05024 0.45167,-0.65326 0.58306,-0.81315 0.66908,-0.81403 0.10423,-8.1e-4 0.0862,0.21313 -0.0356,0.42265 -0.33238,0.57192 -1.02976,1.52634 -1.65519,2.26529 -0.75768,0.89517 -1.59356,1.69185 -2.45082,2.33583 -0.67628,0.50802 -0.98342,0.67163 -1.07984,0.5752 z m -2.44142,-0.54586 c -0.0371,-0.041 -0.0674,-0.0929 -0.0674,-0.11536 0,-0.0225 0.15277,-0.10572 0.33948,-0.18498 1.12956,-0.47964 2.17199,-1.15098 3.18309,-2.05001 0.46439,-0.4129 0.77795,-0.74813 1.30062,-1.39048 0.47819,-0.58768 0.64785,-0.71534 0.67824,-0.5104 0.0163,0.10988 -0.37418,0.68065 -0.82248,1.20228 -0.99682,1.15987 -2.38212,2.1931 -3.86325,2.88137 -0.52087,0.24204 -0.6539,0.27185 -0.74826,0.16758 z m -0.53543,-0.5946 c -0.044,-0.044 -0.0735,-0.0998 -0.0653,-0.1241 0.008,-0.0243 0.24923,-0.14466 0.53588,-0.26759 0.28663,-0.12293 0.75968,-0.34642 1.05117,-0.49665 0.55681,-0.28696 0.73091,-0.33309 0.73091,-0.1937 0,0.10717 -0.14598,0.23525 -0.50234,0.44079 -0.42943,0.2477 -1.50121,0.72127 -1.63237,0.72127 -0.0208,0 -0.0738,-0.036 -0.11794,-0.08 z m 9.13984,-0.18917 c -0.035,-0.11012 0.10943,-0.37074 0.78604,-1.41847 1.35884,-2.1042 1.66038,-2.63301 1.81415,-3.18134 0.10028,-0.3576 0.12289,-1.48771 0.0389,-1.94004 -0.18004,-0.96901 -0.59007,-1.75838 -1.26005,-2.42581 -0.45742,-0.45568 -0.97113,-0.77683 -1.75857,-1.09939 -0.17099,-0.0701 -0.21942,-0.16065 -0.13237,-0.2477 0.0568,-0.0568 0.0815,-0.0565 0.2954,0.004 1.13937,0.31677 2.17599,1.23972 2.77476,2.47046 0.45023,0.92544 0.58817,1.91991 0.41048,2.95928 -0.14555,0.85134 -0.28545,1.12827 -1.57232,3.11242 -0.38749,0.59748 -0.78803,1.21726 -0.89009,1.3773 -0.22605,0.35447 -0.32487,0.46556 -0.4142,0.46556 -0.0375,0 -0.0789,-0.0338 -0.0921,-0.0752 z m 1.32722,-0.35668 c -0.0369,-0.0207 -0.0671,-0.0771 -0.0671,-0.12537 0,-0.0483 0.27294,-0.54066 0.60653,-1.09409 0.71461,-1.18554 1.02294,-1.80419 1.29319,-2.59468 0.10899,-0.31884 0.21784,-0.60337 0.24186,-0.63231 0.0761,-0.0918 0.20413,-0.0427 0.21856,0.0839 0.0279,0.24438 -0.30403,1.15395 -0.72197,1.97868 -0.38617,0.76202 -1.3435,2.32214 -1.4747,2.40322 -0.0161,0.0101 -0.0595,8.1e-4 -0.0964,-0.0194 z m -10.98922,-0.18979 c -0.0431,-0.0475 -0.0569,-0.0919 -0.0351,-0.11269 0.0197,-0.0188 0.30654,-0.1427 0.63729,-0.27532 0.7799,-0.31271 1.17593,-0.51794 1.79945,-0.93253 0.64312,-0.42763 1.15981,-0.86028 1.59967,-1.33952 0.64902,-0.70713 0.70011,-0.75579 0.76665,-0.73026 0.19666,0.0755 -0.0786,0.51225 -0.73135,1.16042 -0.9374,0.93086 -2.01302,1.62755 -3.28759,2.12943 -0.50368,0.19834 -0.64347,0.21709 -0.74901,0.10041 z m 13.0423,-0.48309 c -0.0299,-0.078 0.0578,-0.27649 0.33313,-0.75369 0.50997,-0.8838 0.88845,-1.72691 1.10983,-2.47233 0.18517,-0.62348 0.24349,-1.06298 0.24097,-1.8162 -8.1e-4,-0.56435 0.006,-0.67646 0.056,-0.69525 0.0924,-0.0355 0.17296,0.0139 0.20414,0.12495 0.0158,0.0564 0.0279,0.41667 0.0268,0.80077 -8.1e-4,0.56242 -0.0189,0.78443 -0.0896,1.14062 -0.1973,0.99656 -0.62693,2.02391 -1.32394,3.16582 -0.31193,0.51104 -0.49239,0.67463 -0.55737,0.50531 z m -7.41511,-0.25179 c -0.0372,-0.0601 0.10819,-0.30185 0.4442,-0.73847 0.7736,-1.00528 2.02001,-2.83166 2.29826,-3.36772 0.16134,-0.31081 0.17947,-0.45141 0.0842,-0.65237 -0.11537,-0.24309 -0.38887,-0.36548 -0.69032,-0.30893 -0.17115,0.032 -0.26265,0.14842 -1.15254,1.46508 -1.22449,1.81178 -2.08155,2.864 -2.33273,2.86394 -0.17797,-1e-5 -0.14114,-0.15715 0.0978,-0.41741 0.51625,-0.56216 1.13909,-1.3989 2.07551,-2.78824 0.69862,-1.03654 0.87885,-1.26197 1.09845,-1.374 0.25319,-0.12917 0.6617,-0.09 0.93251,0.0894 0.1921,0.12724 0.3446,0.45112 0.3446,0.73185 0,0.18342 -0.0265,0.27481 -0.14731,0.50711 -0.29379,0.56512 -1.39199,2.20141 -2.03893,3.03793 -0.62871,0.81301 -0.92662,1.09274 -1.01368,0.95186 z m -5.29296,-0.094 c -0.10267,-0.12377 -0.0244,-0.19207 0.58825,-0.5128 0.33619,-0.176 0.73774,-0.40407 0.89233,-0.50681 0.90234,-0.5997 1.83074,-1.58467 2.90101,-3.07782 0.57187,-0.79781 0.80969,-1.08632 0.89552,-1.08632 0.16744,0 0.0645,0.25128 -0.36516,0.89233 -0.63817,0.95189 -1.35908,1.84417 -2.02191,2.50257 -0.7126,0.70785 -1.46531,1.24281 -2.31703,1.64678 -0.4075,0.19326 -0.50954,0.21857 -0.57301,0.14207 z m -1.09235,-0.53263 c -0.0644,-0.12038 -8.1e-4,-0.16469 0.46796,-0.326 0.52906,-0.18202 1.40125,-0.60835 1.84286,-0.90079 0.19205,-0.12717 0.50394,-0.36918 0.69312,-0.53777 0.64363,-0.57366 0.81985,-0.71215 0.90726,-0.71303 0.389,-0.003 -0.51477,0.91126 -1.61767,1.63818 -0.49074,0.32344 -0.87158,0.50932 -1.52425,0.74393 -0.55676,0.20013 -0.70353,0.21835 -0.76928,0.0954 z m 10.1676,-0.40235 c -0.0767,-0.0925 -0.0254,-0.20328 0.38804,-0.83712 0.45419,-0.6964 0.76037,-1.27869 0.9167,-1.74338 0.10006,-0.29737 0.11077,-0.3793 0.1092,-0.83412 -8.1e-4,-0.44099 -0.0148,-0.54336 -0.10571,-0.81473 -0.37658,-1.12458 -1.48479,-1.99197 -2.72509,-2.13295 -0.36784,-0.0419 -0.49109,-0.0906 -0.47708,-0.18891 0.0112,-0.0772 0.0376,-0.0844 0.34693,-0.0947 1.7985,-0.0599 3.51897,1.78524 3.29526,3.53389 -0.0905,0.70705 -0.38888,1.38625 -1.04695,2.38279 -0.35063,0.531 -0.55379,0.78694 -0.62465,0.78694 -0.0158,0 -0.0503,-0.026 -0.0766,-0.0578 z m 6.44297,-0.46232 c -0.0488,-0.0587 -0.0333,-0.14099 0.16807,-0.89606 0.25715,-0.96444 0.33252,-1.88662 0.24109,-2.94996 -0.0331,-0.38487 -0.0501,-0.7384 -0.0377,-0.78564 0.036,-0.13708 0.15249,-0.10526 0.2181,0.0596 0.13294,0.334 0.1625,0.60545 0.16157,1.48397 -6.1e-4,0.72105 -0.0158,0.95886 -0.0863,1.36676 -0.23944,1.38484 -0.4632,1.96422 -0.66477,1.72134 z m -15.78142,-0.2418 c -0.0352,-0.0918 0.0274,-0.17316 0.23537,-0.3051 0.82396,-0.52302 1.2856,-0.89827 1.9657,-1.59786 0.26582,-0.27345 0.64515,-0.7103 0.84294,-0.97077 0.19781,-0.26048 0.39623,-0.49922 0.44095,-0.53054 0.10356,-0.0725 0.25258,-0.0245 0.23394,0.0756 -0.0352,0.18863 -0.90386,1.29452 -1.44364,1.83791 -0.56236,0.56612 -1.4534,1.24661 -1.91185,1.46005 -0.2361,0.10988 -0.32999,0.11789 -0.36341,0.0308 z m -1.32973,-0.32195 c -0.0784,-0.14639 -0.0449,-0.17902 0.29876,-0.29091 0.1864,-0.0607 0.60298,-0.23016 0.92574,-0.37657 0.32275,-0.14641 0.61356,-0.26619 0.64625,-0.26619 0.0796,0 0.11551,0.1047 0.0669,0.19544 -0.0635,0.11864 -0.52132,0.36424 -1.11232,0.59671 -0.59354,0.23348 -0.76081,0.26215 -0.82536,0.14152 z m 14.75343,-0.10481 c -0.0246,-0.064 0.005,-0.19523 0.21892,-0.97883 0.14851,-0.54346 0.20747,-1.10039 0.18331,-1.73169 -0.0255,-0.66487 -0.10685,-1.09302 -0.31706,-1.66825 -0.31453,-0.86061 -0.30763,-0.8343 -0.2374,-0.90452 0.0586,-0.0586 0.0721,-0.0544 0.18027,0.0536 0.14343,0.14343 0.39757,0.72218 0.5254,1.19651 0.16578,0.61511 0.20715,1.89433 0.0866,2.68044 -0.051,0.33326 -0.27102,1.03137 -0.39105,1.24118 -0.0973,0.17005 -0.20764,0.21944 -0.24908,0.11146 z m -14.9234,-0.6527 c -0.0395,-0.103 0.0389,-0.20459 0.19741,-0.25606 0.0802,-0.026 0.30105,-0.12487 0.49081,-0.21965 1.01526,-0.50721 1.65001,-1.05108 2.52564,-2.16405 0.51125,-0.64981 0.72063,-0.8611 0.80291,-0.81024 0.11419,0.0707 -0.13402,0.50292 -0.66991,1.16692 -0.65176,0.80757 -1.13986,1.26951 -1.82634,1.72842 -0.65951,0.44089 -1.45309,0.73038 -1.52052,0.55466 z m 12.85518,-0.23477 c 0,-0.0749 0.0381,-0.2975 0.0848,-0.49465 0.11351,-0.47944 0.12351,-1.37841 0.0203,-1.81819 -0.0837,-0.35645 -0.45774,-1.12477 -0.70593,-1.45004 -0.1846,-0.24191 -0.23801,-0.36627 -0.19994,-0.46547 0.097,-0.25298 0.68081,0.4624 1.00295,1.2291 0.2346,0.5584 0.27565,0.79704 0.27565,1.60298 0,0.62904 -0.012,0.78097 -0.0817,1.03608 -0.1,0.36582 -0.17985,0.4964 -0.30363,0.4964 -0.0799,0 -0.0925,-0.0185 -0.0925,-0.13621 z m -4.30833,-0.27343 c -0.0628,-0.0757 0.0298,-0.28075 0.33198,-0.73489 0.32306,-0.4855 0.52708,-0.66047 0.58727,-0.50365 0.0335,0.0873 -0.0492,0.258 -0.32603,0.67382 -0.23679,0.35555 -0.45958,0.62517 -0.51661,0.62517 -0.0145,0 -0.049,-0.0272 -0.0766,-0.0605 z m -5.71213,-0.15732 c -0.0707,-0.0707 -0.004,-0.18833 0.30744,-0.54396 0.48356,-0.55194 0.68541,-0.82825 1.55497,-2.12863 1.01096,-1.51185 1.35868,-1.9139 2.02814,-2.34504 0.48502,-0.31235 1.25347,-0.61744 1.78457,-0.7085 0.29185,-0.0501 0.38806,-0.0294 0.38806,0.0834 0,0.11336 -0.1264,0.1779 -0.56256,0.28721 -0.69715,0.17472 -1.30717,0.47593 -1.85198,0.91448 -0.43043,0.34648 -0.6404,0.61836 -1.60154,2.07354 -1.08518,1.64303 -1.61321,2.29346 -1.9254,2.37182 -0.0515,0.013 -0.10628,0.0113 -0.1217,-0.004 z m 7.7392,-0.0227 c -0.0664,-0.0664 -0.0593,-0.12423 0.0553,-0.45489 0.0918,-0.26512 0.0995,-0.32997 0.0783,-0.66246 -0.0287,-0.44916 -0.009,-0.54315 0.11395,-0.54315 0.14149,0 0.18454,0.13301 0.2028,0.62651 0.0158,0.42611 0.0113,0.4649 -0.0872,0.67883 -0.0965,0.21068 -0.2355,0.40173 -0.29238,0.40173 -0.0133,0 -0.0453,-0.021 -0.0708,-0.0466 z m -9.84297,-0.38055 c -0.0543,-0.0879 0.0409,-0.20014 0.39522,-0.46651 0.46566,-0.35002 0.91718,-0.77919 1.24359,-1.18201 0.13831,-0.17071 0.57046,-0.7905 0.96032,-1.3773 0.82854,-1.24712 1.15666,-1.6822 1.60953,-2.13419 0.86488,-0.86318 1.97022,-1.43632 3.27934,-1.70034 0.76225,-0.15372 1.1057,-0.14588 1.1057,0.0253 0,0.10187 -0.13962,0.15414 -0.59423,0.22236 -0.77528,0.11635 -1.37898,0.29524 -2.03874,0.60411 -0.57397,0.2687 -1.01064,0.57559 -1.48403,1.04295 -0.49004,0.48382 -0.74917,0.82805 -1.70843,2.26962 -0.46924,0.70516 -0.84551,1.22382 -1.07241,1.47821 -0.67196,0.75339 -1.57992,1.40543 -1.69586,1.21782 z m 6.32369,-0.0397 c -0.0311,-0.0982 0.10583,-0.34657 0.57198,-1.03745 0.42339,-0.62747 0.65659,-0.88823 0.92834,-1.03806 0.191,-0.10526 0.24359,-0.11531 0.67452,-0.12822 0.39798,-0.0118 0.47526,-0.005 0.52044,0.0499 0.0943,0.11362 -0.0283,0.17611 -0.45417,0.2315 -0.67102,0.0872 -0.83834,0.21913 -1.48634,1.17156 -0.53513,0.78652 -0.69342,0.94398 -0.75477,0.75075 z m -7.18889,-0.47426 0.0118,-0.16323 0.35015,-0.1753 c 0.1926,-0.0965 0.42828,-0.22964 0.52376,-0.29608 0.39756,-0.27659 0.65855,-0.35791 0.65855,-0.20515 0,0.19913 -0.77365,0.72077 -1.40856,0.94974 l -0.14768,0.0533 z m 17.16217,0.12969 c -0.0121,-0.0195 -0.0482,-0.30318 -0.0804,-0.63045 -0.12724,-1.29241 -0.32811,-2.018 -0.86824,-3.13621 -0.20604,-0.42659 -0.23822,-0.56891 -0.13738,-0.6076 0.10888,-0.0418 0.28998,0.18801 0.52457,0.66579 0.40339,0.82156 0.6729,1.8039 0.77513,2.82536 0.0539,0.53732 0.0347,0.79549 -0.0639,0.86769 -0.082,0.0599 -0.11972,0.0639 -0.14963,0.0154 z m -11.50646,-0.12044 c -0.0462,-0.0286 -0.0405,-0.0642 0.0351,-0.22038 0.12554,-0.25931 0.75356,-1.20187 1.1647,-1.74803 0.49054,-0.65165 0.76365,-0.8835 0.95446,-0.81028 0.0937,0.036 0.0707,0.0875 -0.15494,0.34446 -0.37387,0.42587 -0.72703,0.88913 -1.13268,1.48579 -0.56541,0.83162 -0.74234,1.02525 -0.86664,0.94844 z m 13.00403,-0.68797 c -0.0195,-0.0373 -0.0658,-0.29478 -0.10278,-0.57209 -0.18558,-1.39094 -0.72677,-2.82067 -1.50322,-3.97134 -0.22275,-0.33008 -0.39474,-0.68512 -0.35951,-0.7421 0.0702,-0.11362 0.25095,0.0149 0.49022,0.34865 0.3799,0.52989 1.07596,1.91616 1.28982,2.56881 0.34252,1.04534 0.51356,2.28471 0.33123,2.40015 -0.0791,0.0501 -0.10582,0.0442 -0.14573,-0.0321 z m -18.66726,-0.0994 c 0,-0.16912 0.0375,-0.21371 0.44076,-0.5254 0.68502,-0.52935 0.97482,-0.88195 1.98183,-2.41108 0.74503,-1.13132 1.03873,-1.5214 1.45391,-1.93092 1.17655,-1.1605 2.60082,-1.89013 4.27444,-2.18969 0.4073,-0.073 0.62486,-0.0864 1.41413,-0.0876 0.83674,-8.1e-4 0.94382,0.006 1.04018,0.069 0.0622,0.0406 0.1021,0.0978 0.0949,0.13578 -0.0112,0.0587 -0.11747,0.068 -1.02078,0.0899 -1.07449,0.026 -1.40888,0.0613 -2.00312,0.21054 -1.37483,0.34544 -2.60968,1.0452 -3.59678,2.03822 -0.44368,0.44633 -0.73148,0.82792 -1.40182,1.85863 -0.28448,0.43743 -0.63915,0.96119 -0.78812,1.16391 -0.38186,0.51956 -1.1391,1.26634 -1.48939,1.46884 -0.38618,0.22322 -0.40013,0.22705 -0.40013,0.10977 z m 14.72701,0.016 c -0.042,-0.0466 -0.082,-0.18455 -0.10389,-0.35982 -0.0925,-0.73757 -0.59046,-1.71845 -1.26697,-2.49574 -0.36263,-0.41664 -0.38983,-0.47151 -0.28558,-0.57577 l 0.0814,-0.0813 0.21711,0.21217 c 0.35749,0.34936 0.83955,0.9768 1.03172,1.34285 0.34641,0.65986 0.57877,1.50955 0.50711,1.85446 -0.0371,0.17853 -0.087,0.20698 -0.18081,0.10322 z m -9.00988,-0.68302 c -0.0357,-0.0932 0.0167,-0.24019 0.1847,-0.51723 0.63821,-1.05275 1.49919,-1.70246 2.66941,-2.01444 0.47981,-0.12793 1.27708,-0.14339 1.7796,-0.0346 0.67986,0.14727 1.17182,0.37031 1.17182,0.53122 0,0.0431 -0.0294,0.0895 -0.0651,0.10323 -0.0363,0.0139 -0.31425,-0.0595 -0.62863,-0.16611 l -0.56357,-0.19107 -0.71956,0.004 c -0.83609,0.004 -1.10446,0.0578 -1.68949,0.34074 -0.62515,0.30238 -1.05267,0.68987 -1.57675,1.42922 -0.37794,0.53315 -0.50951,0.65382 -0.56247,0.51582 z m -5.56194,-0.34008 c 0,-0.14699 0.0973,-0.301 0.48364,-0.76596 0.15091,-0.18159 0.43762,-0.57442 0.63716,-0.87293 0.41342,-0.61852 0.4948,-0.71733 0.59073,-0.71733 0.17202,0 0.13109,0.14585 -0.19054,0.67895 -0.40827,0.67671 -1.33072,1.80406 -1.47617,1.80406 -0.0247,0 -0.0449,-0.0568 -0.0449,-0.12679 z m 2.05622,-0.0881 c 0,-0.0328 0.0356,-0.12963 0.0793,-0.21506 0.19605,-0.38429 1.13922,-1.7969 1.6298,-2.44098 0.39539,-0.51909 0.76509,-0.83912 0.85986,-0.74435 0.0643,0.0643 -1.3e-4,0.18268 -0.32547,0.59769 -0.33629,0.42894 -0.69637,0.92751 -1.38409,1.91636 -0.23913,0.34385 -0.50144,0.69738 -0.58291,0.78563 -0.15057,0.1631 -0.27644,0.20895 -0.27644,0.10075 z m 13.84407,-0.23923 c -0.0332,-0.0382 -0.10843,-0.20054 -0.16732,-0.36058 -0.31622,-0.86007 -1.01163,-1.89769 -1.75518,-2.61888 -0.19806,-0.1921 -0.3601,-0.37707 -0.3601,-0.41105 0,-0.0339 0.0339,-0.0925 0.0755,-0.13012 0.0723,-0.0655 0.0802,-0.065 0.18428,0.0101 0.13505,0.0971 0.79278,0.77332 1.00992,1.03832 0.524,0.63945 1.28783,2.13069 1.2452,2.43103 -0.0158,0.11168 -0.15058,0.1357 -0.23231,0.0414 z m 1.44801,-0.64418 c -0.0232,-0.028 -0.13015,-0.2483 -0.23771,-0.48967 -0.84132,-1.8882 -2.15877,-3.31078 -3.88087,-4.19058 -1.87213,-0.9564 -3.66357,-1.19039 -5.77808,-0.75466 -0.7004,0.14432 -0.91396,0.16176 -0.9464,0.0772 -0.0496,-0.12922 0.23826,-0.25382 1.01284,-0.43843 0.45206,-0.10774 0.46234,-0.10843 1.79315,-0.10843 1.33507,0 1.3397,3e-4 1.80406,0.11012 0.95866,0.22674 1.96465,0.61281 2.6115,1.00221 1.2318,0.74153 2.23138,1.69523 2.97451,2.83794 0.42498,0.6535 0.92478,1.77706 0.8626,1.93913 -0.03,0.0781 -0.15594,0.087 -0.2156,0.0151 z m -12.62803,-0.24662 c -0.11281,-0.11282 0.14116,-0.49626 0.67989,-1.02686 0.44249,-0.43581 0.87132,-0.75906 1.27499,-0.9611 0.3276,-0.16395 0.45436,-0.19118 0.53148,-0.11406 0.0808,0.0808 -0.018,0.17634 -0.45284,0.43833 -0.66758,0.40222 -1.11585,0.79309 -1.68333,1.46781 -0.17014,0.20226 -0.2815,0.26456 -0.35019,0.19588 z m -4.35022,-0.24571 c 0.0593,-0.22337 0.35239,-0.86212 0.56966,-1.24149 0.82683,-1.4438 2.09098,-2.80669 3.29303,-3.55023 0.82062,-0.50761 1.94515,-1.00343 2.82299,-1.24467 0.67269,-0.18487 1.32359,-0.2577 2.35399,-0.26339 0.7651,-0.004 0.8663,0.004 0.96259,0.0656 0.0622,0.0407 0.10233,0.0979 0.0951,0.13579 -0.0165,0.0867 -0.26365,0.11477 -1.05918,0.1202 -1.60228,0.0113 -2.69881,0.26469 -4.05428,0.93804 -1.09207,0.54252 -1.8312,1.07372 -2.53626,1.8228 -0.55688,0.59164 -0.90602,1.05623 -1.995,2.65475 -0.17443,0.25606 -0.35345,0.50922 -0.39778,0.56255 l -0.0805,0.097 z m 13.40283,-0.97449 c -0.0747,-0.045 -0.24054,-0.18128 -0.36858,-0.30278 -0.65986,-0.62617 -1.67584,-1.18045 -2.60273,-1.41997 -0.50585,-0.13071 -0.7144,-0.20842 -0.7144,-0.26617 0,-0.30806 0.96237,-0.1021 2.07564,0.44415 0.59751,0.2932 1.05368,0.61168 1.53554,1.07206 0.35918,0.34314 0.41105,0.41842 0.34405,0.49916 -0.0622,0.0748 -0.10921,0.0702 -0.26952,-0.0265 z m -2.64828,-0.79392 c -0.66304,-0.26109 -0.67694,-0.26304 -1.92976,-0.27181 l -1.1445,-0.008 -0.0116,-0.0939 c -0.0174,-0.14202 0.13084,-0.18787 0.74872,-0.23138 0.98099,-0.069 1.74955,0.0294 2.50456,0.32045 0.34201,0.13189 0.40486,0.18728 0.37001,0.3261 -0.0327,0.13034 -0.11785,0.12378 -0.53744,-0.0414 z m 3.14578,-0.86023 c -0.84183,-0.63977 -1.3839,-0.95661 -2.17599,-1.27188 -0.29933,-0.11913 -0.48327,-0.21582 -0.5345,-0.28094 -0.39941,-0.50778 1.10382,0.0617 2.34849,0.88965 0.60821,0.40459 0.88533,0.66991 0.8666,0.82968 -0.006,0.0599 -0.0332,0.11561 -0.0579,0.12376 -0.0249,0.008 -0.22583,-0.12249 -0.44663,-0.29027 z m -11.18753,0.0136 c -0.0625,-0.0456 -0.0647,-0.0653 -0.02,-0.17338 0.15606,-0.37678 2.03109,-1.75076 2.38919,-1.75076 0.0896,0 0.0994,0.0135 0.0886,0.12162 -0.0113,0.10773 -0.0533,0.14648 -0.37212,0.33947 -0.47891,0.28983 -1.02916,0.69655 -1.49728,1.10671 -0.46016,0.40316 -0.4953,0.42445 -0.58846,0.35634 z m 2.85133,-0.29791 c -0.0805,-0.15064 0.10684,-0.27909 0.81095,-0.55591 1.08418,-0.42621 2.46255,-0.59122 3.56986,-0.42736 1.07937,0.15974 2.13891,0.52137 2.17015,0.74069 0.0244,0.17138 -0.1631,0.14916 -0.8602,-0.10199 -1.61555,-0.58193 -3.41628,-0.49366 -5.16463,0.25317 -0.2217,0.0947 -0.42102,0.17218 -0.44297,0.17218 -0.0221,0 -0.0593,-0.0363 -0.0832,-0.0808 z m 9.13838,-1.04954 c -0.61172,-0.47856 -1.14386,-0.8082 -1.90331,-1.17907 -0.40666,-0.19859 -0.7608,-0.38688 -0.78696,-0.4184 -0.076,-0.0915 0.0428,-0.18512 0.19909,-0.15685 0.49546,0.0897 1.91221,0.87623 2.68639,1.49144 0.34517,0.27431 0.40157,0.36 0.30624,0.46534 -0.037,0.041 -0.0864,0.0736 -0.10978,0.0725 -0.0233,-8.2e-4 -0.1996,-0.12475 -0.39165,-0.275 z"
       id="path866"
       inkscape:connector-curvature="0"
       inkscape:export-xdpi="50"
       inkscape:export-ydpi="50" />
  </g>
</svg>
